<mxfile host="Electron" modified="2023-12-19T10:10:49.441Z" agent="Mozilla/5.0 (Windows NT 10.0; Win64; x64) AppleWebKit/537.36 (KHTML, like Gecko) draw.io/22.1.11 Chrome/114.0.5735.289 Electron/25.9.8 Safari/537.36" etag="eKGMB3VnQpYhi6zNyH75" version="22.1.11" type="device">
  <diagram name="Page-1" id="oAzv6p3DsodNeNS0clT7">
    <mxGraphModel dx="928" dy="577" grid="1" gridSize="10" guides="1" tooltips="1" connect="1" arrows="1" fold="1" page="1" pageScale="1" pageWidth="850" pageHeight="1100" math="0" shadow="0">
      <root>
        <mxCell id="0" />
        <mxCell id="1" parent="0" />
        <mxCell id="OQcBgrV1E-DltKgcwWzk-1" value="&lt;b&gt;Deblur-NeRF&lt;/b&gt;&lt;br&gt;(Deblur and 3D-Reconstruction integrated together)" style="rounded=1;whiteSpace=wrap;html=1;fillColor=#FFB570;strokeColor=#FFFFFF;" parent="1" vertex="1">
          <mxGeometry x="60" y="235" width="200" height="90" as="geometry" />
        </mxCell>
        <mxCell id="OQcBgrV1E-DltKgcwWzk-2" value="" style="rounded=1.5;whiteSpace=wrap;html=1;fillColor=#E6E6E6;strokeColor=none;" parent="1" vertex="1">
          <mxGeometry x="380" y="30" width="390" height="500" as="geometry" />
        </mxCell>
        <mxCell id="XUJx9gF67EOi-3RmZ-BB-4" value="" style="endArrow=classic;startArrow=classic;html=1;rounded=0;entryX=0;entryY=0.5;entryDx=0;entryDy=0;exitX=1;exitY=0.5;exitDx=0;exitDy=0;" edge="1" parent="1" source="OQcBgrV1E-DltKgcwWzk-1" target="OQcBgrV1E-DltKgcwWzk-2">
          <mxGeometry width="50" height="50" relative="1" as="geometry">
            <mxPoint x="290" y="320" as="sourcePoint" />
            <mxPoint x="340" y="270" as="targetPoint" />
          </mxGeometry>
        </mxCell>
        <mxCell id="XUJx9gF67EOi-3RmZ-BB-5" value="Compare" style="text;html=1;strokeColor=none;fillColor=none;align=center;verticalAlign=middle;whiteSpace=wrap;rounded=0;" vertex="1" parent="1">
          <mxGeometry x="290" y="240" width="60" height="30" as="geometry" />
        </mxCell>
        <mxCell id="XUJx9gF67EOi-3RmZ-BB-9" value="&lt;b&gt;&lt;font color=&quot;#ffffff&quot; style=&quot;font-size: 14px;&quot;&gt;Naive NeRF&lt;/font&gt;&lt;/b&gt;" style="rounded=0.5;whiteSpace=wrap;html=1;fillColor=#008080;strokeColor=#FFFFFF;" vertex="1" parent="1">
          <mxGeometry x="400" y="430" width="350" height="80" as="geometry" />
        </mxCell>
        <mxCell id="XUJx9gF67EOi-3RmZ-BB-11" value="" style="rounded=0.5;whiteSpace=wrap;html=1;fillColor=#4D4D4D;strokeColor=none;" vertex="1" parent="1">
          <mxGeometry x="400" y="80" width="170" height="300" as="geometry" />
        </mxCell>
        <mxCell id="XUJx9gF67EOi-3RmZ-BB-12" value="" style="rounded=0.5;whiteSpace=wrap;html=1;fillColor=#4D4D4D;strokeColor=none;" vertex="1" parent="1">
          <mxGeometry x="580" y="80" width="170" height="300" as="geometry" />
        </mxCell>
        <mxCell id="XUJx9gF67EOi-3RmZ-BB-13" value="&lt;span&gt;&lt;font style=&quot;font-size: 12px;&quot;&gt;Filtering&lt;/font&gt;&lt;/span&gt;" style="rounded=0.5;whiteSpace=wrap;html=1;fillColor=#E6FFCC;strokeColor=none;fontStyle=1" vertex="1" parent="1">
          <mxGeometry x="410" y="90" width="150" height="40" as="geometry" />
        </mxCell>
        <mxCell id="XUJx9gF67EOi-3RmZ-BB-14" value="&lt;b&gt;&lt;font style=&quot;font-size: 12px;&quot;&gt;Weiner Filter&lt;/font&gt;&lt;/b&gt;" style="rounded=0.5;whiteSpace=wrap;html=1;fillColor=#E6FFCC;strokeColor=none;" vertex="1" parent="1">
          <mxGeometry x="411" y="150" width="150" height="40" as="geometry" />
        </mxCell>
        <mxCell id="XUJx9gF67EOi-3RmZ-BB-15" value="&lt;b&gt;&lt;font style=&quot;font-size: 12px;&quot;&gt;Weiner Filter + Sharpening&lt;/font&gt;&lt;/b&gt;" style="rounded=0.5;whiteSpace=wrap;html=1;fillColor=#E6FFCC;strokeColor=none;" vertex="1" parent="1">
          <mxGeometry x="410" y="210" width="150" height="40" as="geometry" />
        </mxCell>
        <mxCell id="XUJx9gF67EOi-3RmZ-BB-16" value="&lt;b&gt;&lt;font style=&quot;font-size: 12px;&quot;&gt;Sharpening&lt;/font&gt;&lt;/b&gt;" style="rounded=0.5;whiteSpace=wrap;html=1;fillColor=#E6FFCC;strokeColor=none;" vertex="1" parent="1">
          <mxGeometry x="410" y="270" width="150" height="40" as="geometry" />
        </mxCell>
        <mxCell id="XUJx9gF67EOi-3RmZ-BB-17" value="&lt;b&gt;&lt;font style=&quot;font-size: 12px;&quot;&gt;Blind Richardson-Lucy (RL)&lt;/font&gt;&lt;/b&gt;" style="rounded=0.5;whiteSpace=wrap;html=1;fillColor=#E6FFCC;strokeColor=none;" vertex="1" parent="1">
          <mxGeometry x="411" y="330" width="150" height="40" as="geometry" />
        </mxCell>
        <mxCell id="XUJx9gF67EOi-3RmZ-BB-18" value="&lt;b&gt;&lt;font style=&quot;font-size: 12px;&quot;&gt;Restormer&lt;/font&gt;&lt;/b&gt;" style="rounded=0.5;whiteSpace=wrap;html=1;fillColor=#E6FFCC;strokeColor=none;" vertex="1" parent="1">
          <mxGeometry x="590" y="90" width="150" height="34" as="geometry" />
        </mxCell>
        <mxCell id="XUJx9gF67EOi-3RmZ-BB-19" value="&lt;b&gt;&lt;font style=&quot;font-size: 12px;&quot;&gt;Shift-Net&lt;/font&gt;&lt;/b&gt;" style="rounded=0.5;whiteSpace=wrap;html=1;strokeColor=none;" vertex="1" parent="1">
          <mxGeometry x="590" y="140" width="150" height="33" as="geometry" />
        </mxCell>
        <mxCell id="XUJx9gF67EOi-3RmZ-BB-20" value="&lt;b&gt;&lt;font style=&quot;font-size: 12px;&quot;&gt;FFTformer&lt;/font&gt;&lt;/b&gt;" style="rounded=0.5;whiteSpace=wrap;html=1;strokeColor=none;" vertex="1" parent="1">
          <mxGeometry x="590" y="190" width="150" height="34" as="geometry" />
        </mxCell>
        <mxCell id="XUJx9gF67EOi-3RmZ-BB-21" value="&lt;b&gt;&lt;font style=&quot;font-size: 12px;&quot;&gt;GRL&lt;/font&gt;&lt;/b&gt;" style="rounded=0.5;whiteSpace=wrap;html=1;strokeColor=none;" vertex="1" parent="1">
          <mxGeometry x="590" y="290" width="150" height="30" as="geometry" />
        </mxCell>
        <mxCell id="XUJx9gF67EOi-3RmZ-BB-22" value="&lt;b&gt;&lt;font style=&quot;font-size: 12px;&quot;&gt;U-Former&lt;/font&gt;&lt;/b&gt;" style="rounded=0.5;whiteSpace=wrap;html=1;strokeColor=none;" vertex="1" parent="1">
          <mxGeometry x="590" y="241" width="150" height="34" as="geometry" />
        </mxCell>
        <mxCell id="XUJx9gF67EOi-3RmZ-BB-24" value="&lt;b&gt;&lt;font style=&quot;font-size: 12px;&quot;&gt;EST-RNN&lt;/font&gt;&lt;/b&gt;" style="rounded=0.5;whiteSpace=wrap;html=1;strokeColor=none;" vertex="1" parent="1">
          <mxGeometry x="590" y="334" width="150" height="36" as="geometry" />
        </mxCell>
        <mxCell id="XUJx9gF67EOi-3RmZ-BB-25" value="Non-DL" style="text;html=1;strokeColor=none;fillColor=none;align=center;verticalAlign=middle;whiteSpace=wrap;rounded=0;fontStyle=1;fontSize=14;" vertex="1" parent="1">
          <mxGeometry x="455" y="43" width="60" height="30" as="geometry" />
        </mxCell>
        <mxCell id="XUJx9gF67EOi-3RmZ-BB-27" value="DL" style="text;html=1;strokeColor=none;fillColor=none;align=center;verticalAlign=middle;whiteSpace=wrap;rounded=0;fontStyle=1;fontSize=14;" vertex="1" parent="1">
          <mxGeometry x="635" y="43" width="60" height="30" as="geometry" />
        </mxCell>
        <mxCell id="XUJx9gF67EOi-3RmZ-BB-28" value="" style="shape=cross;whiteSpace=wrap;html=1;strokeColor=none;fillColor=#4D4D4D;" vertex="1" parent="1">
          <mxGeometry x="561" y="391" width="30" height="30" as="geometry" />
        </mxCell>
      </root>
    </mxGraphModel>
  </diagram>
</mxfile>
